<svg width="0" height="0" class="hidden">
  <symbol version="1.1" id="noun-home-5452506" xmlns="http://www.w3.org/2000/svg" xmlns:xlink="http://www.w3.org/1999/xlink" x="0px" y="0px" xml:space="preserve" viewBox="0 0 700 607">
    <path d="M602.6,232.1L358,60.9c-4.8-3.4-11.2-3.4-16,0L97.4,232.1c-13.5,9.5-16.8,28.1-7.4,41.7l18.3,26.2
	c4.6,6.6,11.4,10.9,19.3,12.3c1.8,0.3,3.5,0.5,5.3,0.5c6.1,0,12-1.9,17.1-5.4l24.4-17.1v169.5c0,23.1,18.8,41.9,41.9,41.9H269
	c23.1,0,41.9-18.8,41.9-41.9l0-91.7c0-7.7,6.3-14,14-14h50.3c7.7,0,14,6.3,14,14v91.7c0,23.1,18.8,41.9,41.9,41.9h52.7
	c23.1,0,41.9-18.8,41.9-41.9l0-169.5l24.4,17.1c6.6,4.6,14.5,6.4,22.4,5c7.9-1.4,14.7-5.8,19.3-12.3l18.3-26.2
	C619.4,260.2,616.1,241.5,602.6,232.1L602.6,232.1z M497.7,459.7c0,7.7-6.3,14-14,14H431c-7.7,0-14-6.3-14-14V368
	c0-23.1-18.8-41.9-41.9-41.9h-50.3c-23.1,0-41.9,18.8-41.9,41.9v91.7c0,7.7-6.3,14-14,14h-52.7c-7.7,0-14-6.3-14-14l0-189.1
	L350,167.3l147.7,103.4L497.7,459.7z M587.1,257.8l-18.3,26.2c-0.4,0.6-0.9,0.8-1.3,0.8c-0.4,0.1-0.9,0.1-1.5-0.3L358,138.8
	c-4.8-3.4-11.2-3.4-16,0L134,284.4c-0.6,0.4-1.1,0.4-1.5,0.3c-0.4-0.1-0.9-0.3-1.3-0.8l-18.3-26.2c-0.6-0.9-0.4-2.2,0.5-2.8
	L350,89.4L586.6,255C587.5,255.6,587.7,256.9,587.1,257.8L587.1,257.8z"></path>
  </symbol>

   <symbol version="1.1" id="noun-profile-3465351" xmlns="http://www.w3.org/2000/svg" xmlns:xlink="http://www.w3.org/1999/xlink" x="0px" y="0px" xml:space="preserve" viewBox="0 0 700 474">
    <path d="M350,118.2c-39.7,0-72.1,32.3-72.1,72.1c0,39.7,32.3,72.1,72.1,72.1s72.1-32.3,72.1-72.1C422.1,150.5,389.7,118.2,350,118.2
	z M350,239.9c-27.4,0-49.7-22.3-49.7-49.7s22.3-49.7,49.7-49.7s49.7,22.3,49.7,49.7S377.4,239.9,350,239.9z"></path>
    <path d="M491.9,419.4c0-82.7-62.3-147.5-141.9-147.5s-141.9,64.8-141.9,147.5v11.2h283.7L491.9,419.4L491.9,419.4z M231,408.2
	c5.2-64.7,55.6-113.9,119-113.9s113.8,49.2,119,113.9H231z"></path>
  </symbol>

  <symbol version="1.1" id="noun-tick-3532083" xmlns="http://www.w3.org/2000/svg" xmlns:xlink="http://www.w3.org/1999/xlink" x="0px" y="0px" xml:space="preserve" viewBox="0 0 406 381">
    <path d="M314.3,117.2L190.6,260.7l-52-51.6c-5.9-5.9-14.5-8.2-22.6-6.1c-8.1,2.2-14.4,8.5-16.6,16.6c-2.2,8.1,0.1,16.7,6.1,22.6
	l70,70c4.5,4.3,10.4,6.7,16.6,6.8c6.5-0.3,12.6-3.2,16.8-8.2l140-163.3c5.4-6.3,7-15.1,4.3-22.9s-9.5-13.6-17.7-15.2
	c-8.2-1.5-16.6,1.4-22,7.8L314.3,117.2z"></path>
  </symbol>

    <symbol version="1.1" id="noun-abilities-2454754" xmlns="http://www.w3.org/2000/svg" xmlns:xlink="http://www.w3.org/1999/xlink" x="0px" y="0px" xml:space="preserve" viewBox="0 0 700 602">
    <path d="M579.2,91.3c-3.2-5.1-8.8-8.2-14.8-8.2s-11.6,3.1-14.8,8.2L518.9,140v0c-2.2,3.5-3.1,7.8-2.5,11.9c0.6,4.1,2.7,7.9,5.9,10.7
	c3.2,2.7,7.2,4.2,11.4,4.2c0.1,0,0.3,0,0.4,0l3.9-0.1v100.2c0,4.6,1.8,9.1,5.1,12.4s7.7,5.1,12.4,5.1h17.5c4.6,0,9.1-1.8,12.4-5.1
	s5.1-7.7,5.1-12.4V166.8h4.4c4.2,0,8.2-1.5,11.4-4.2c3.2-2.7,5.3-6.5,5.9-10.7c0.6-4.1-0.3-8.4-2.5-11.9L579.2,91.3z M573.1,149.3
	v117.6h-17.5V148.8l-21.9,0.5l30.6-48.7l30.6,48.7L573.1,149.3z"></path>
    <path d="M185.9,157.7c1.5-2.7,2.3-5.8,2.2-9c-0.1-3.1-1-6.2-2.7-8.8l-30.6-48.7c-3.2-5.1-8.8-8.2-14.8-8.2s-11.6,3.1-14.8,8.2
	L94.6,140c-2.2,3.5-3.1,7.8-2.5,11.9c0.6,4.1,2.7,7.9,5.9,10.7c3.2,2.7,7.2,4.2,11.4,4.2c0.1,0,0.3,0,0.4,0l3.9-0.1v100.2
	c0,4.6,1.8,9.1,5.1,12.4s7.7,5.1,12.4,5.1h17.5c4.6,0,9.1-1.8,12.4-5.1s5.1-7.7,5.1-12.4V166.8h4.4c3.1,0,6.2-0.8,8.9-2.4
	C182.2,162.8,184.4,160.5,185.9,157.7L185.9,157.7z M148.8,149.3v117.6h-17.5V148.8l-21.9,0.5l30.6-48.7l30.6,48.7L148.8,149.3z"></path>
    <path d="M214.7,471.2c-29.7-54.5-17.6-105.2-1.3-139.1c-1.2-10.4-2.1-20.6-2.6-30.5c-23.2,37-55.2,111.8-3.7,190.9
	c1.6,2.5,4.4,4,7.3,4h0c3,0,5.7-1.5,7.3-4l22.8-34.9c-2.6-7-5-13.9-7.3-20.8L214.7,471.2z"></path>
    <path d="M486.7,332.1c16.3,34,28.3,84.7-1.3,139.2l-22.5-34.4c-2.3,6.9-4.7,13.8-7.3,20.8l22.8,34.9c1.6,2.5,4.4,4,7.3,4h0
	c3,0,5.7-1.5,7.3-4c51.5-79.1,19.4-153.9-3.7-190.9C488.8,311.5,487.9,321.7,486.7,332.1L486.7,332.1z"></path>
    <path d="M351.2,0.5C350.9,0.2,350.5,0,350,0s-0.9,0.2-1.2,0.5c-23.3,19.4-203.6,182.8-76.1,480.7h7.3v52.5c0,4.8,3.9,8.8,8.8,8.8
	s8.8-3.9,8.8-8.8v-52.5h43.8v70c0,4.8,3.9,8.8,8.8,8.8s8.8-3.9,8.8-8.8v-70h39.4v52.5c0,4.8,3.9,8.8,8.8,8.8s8.8-3.9,8.8-8.8v-52.5
	h11.6C554.8,183.3,374.5,19.9,351.2,0.5L351.2,0.5z M415.6,463.8H284.4c-2.4-5.9-4.6-11.7-6.8-17.5h144.9
	C420.3,452.1,418,457.9,415.6,463.8L415.6,463.8z M272.7,428.8c-0.5,0-0.9,0.1-1.4,0.1c-35.1-103.3-35.4-199.3-0.9-286
	C288.3,97.8,315.4,57,350,23c34.6,34,61.7,74.8,79.5,119.9c34.5,86.6,34.1,182.6-0.9,285.8L272.7,428.8z"></path>
    <path d="M350,245c12.8,0,25-5.1,34-14.1c9-9,14.1-21.3,14.1-34s-5.1-25-14.1-34c-9-9-21.3-14.1-34-14.1s-25,5.1-34,14.1
	c-9,9-14.1,21.3-14.1,34c0,12.8,5.1,25,14.1,34C325,239.9,337.2,245,350,245z M350,166.2c8.1,0,15.9,3.2,21.7,9
	c5.7,5.7,9,13.5,9,21.7s-3.2,15.9-9,21.7c-5.7,5.7-13.5,9-21.7,9s-15.9-3.2-21.7-9c-5.7-5.7-9-13.5-9-21.7c0-8.1,3.2-15.9,9-21.6
	C334.1,169.5,341.9,166.3,350,166.2L350,166.2z"></path>
    <path d="M380.6,332.5h-61.2c-4.8,0-8.8,3.9-8.8,8.8s3.9,8.8,8.8,8.8h61.2c4.8,0,8.8-3.9,8.8-8.8S385.5,332.5,380.6,332.5z"></path>
    <path d="M262.5,288.8v21.9c0,4.8,3.9,8.8,8.8,8.8s8.8-3.9,8.8-8.8v-21.9c0-18.2,8.1-35.5,22.1-47.1c-4-4.3-7.4-9-10.2-14.2
	C273.3,242.3,262.5,264.9,262.5,288.8z"></path>
    <path d="M408,227.4c-2.7,5.2-6.2,9.9-10.2,14.2c14,11.6,22.2,28.9,22.1,47.1v21.9c0,4.8,3.9,8.8,8.8,8.8s8.8-3.9,8.8-8.8v-21.9
	C437.5,264.9,426.7,242.3,408,227.4L408,227.4z"></path>
  </symbol>
</svg>